<?xml version="1.0" encoding="UTF-8"?>
<svg version="1.1" xmlns="http://www.w3.org/2000/svg" viewBox="250 210 590 670">
<path d="M0 0 C2.49015969 1.32752621 4.81986859 2.67271174 7.1875 4.1875 C12.38786494 7.45389138 17.66651644 10.48006069 23.07006836 13.3996582 C28.15912696 16.17932483 33.16975512 19.09416257 38.1875 22 C39.31099854 22.64936523 40.43449707 23.29873047 41.59204102 23.96777344 C50.2243159 28.95950494 58.83978237 33.9800147 67.44995117 39.00976562 C73.45897417 42.51987383 79.47497586 46.01743466 85.5 49.5 C99.53128284 57.6127531 113.53553064 65.77273828 127.5 74 C145.95290287 84.86942595 164.48482124 95.60121608 183.04052734 106.29394531 C201.85216885 117.13833987 220.62785895 128.04613459 239.32397461 139.08862305 C243.73849353 141.68873808 248.17189561 144.25462457 252.61328125 146.80859375 C253.19501099 147.14320114 253.77674072 147.47780853 254.37609863 147.82255554 C257.28018356 149.49258434 260.18565665 151.16007416 263.09326172 152.82397461 C265.18491311 154.02532282 267.26945987 155.23916269 269.34521484 156.46777344 C271.86345504 157.97640889 271.86345504 157.97640889 274.06494141 158.94628906 C275.70703125 159.7578125 275.70703125 159.7578125 278 162 C279.4630831 169.38758278 279.14314852 177.23197571 279.12698364 184.73493958 C279.12854363 185.86500496 279.13010362 186.99507035 279.13171089 188.15938014 C279.13567695 191.91982491 279.13254809 195.6802288 279.12939453 199.44067383 C279.13020095 202.14907921 279.13249612 204.8574829 279.13470459 207.56588745 C279.13914037 214.14980396 279.13819443 220.73370903 279.13529195 227.31762598 C279.13302413 232.68746151 279.13273137 238.05729387 279.13381577 243.42712975 C279.13404561 244.57825172 279.13404561 244.57825172 279.13428011 245.75262868 C279.13459989 247.31247102 279.1349241 248.87231336 279.1352527 250.43215569 C279.13810242 265.05346699 279.13483111 279.67477201 279.12945233 294.29608228 C279.12500888 306.75785686 279.12574076 319.21962209 279.13037109 331.68139648 C279.13576782 346.21218271 279.13780257 360.74296339 279.13475883 375.27375048 C279.13444036 376.83578185 279.13412599 378.39781322 279.13381577 379.95984459 C279.13366149 380.72796765 279.13350721 381.49609071 279.13334826 382.28749022 C279.13249644 387.61780203 279.13395781 392.94811015 279.13629532 398.2784214 C279.13737975 401.23027671 279.13825473 404.182132 279.13894653 407.13398743 C279.13912118 407.85186845 279.13929583 408.56974948 279.13947578 409.30938447 C279.14106509 420.70819024 279.10217439 432.10634693 279.035478 443.50498718 C279.00081116 450.12600271 279.0142886 456.74326987 279.09182608 463.3639093 C279.12725932 466.98683457 279.12512184 470.608978 279.11210608 474.23202074 C279.1151103 475.82960671 279.13515997 477.42727465 279.17433 479.02438319 C279.28113457 483.49299436 279.2957503 487.67648103 278 492 C275.01613004 495.01892196 271.90323462 496.45053037 268 498 C266.57314295 498.80627657 265.1573084 499.63292475 263.76171875 500.4921875 C262.4037345 501.28660992 261.04566052 502.08087898 259.6875 502.875 C254.45903791 505.93776526 249.26998828 509.04894651 244.125 512.25 C239.50095499 515.11576617 234.81188381 517.76883916 230.01953125 520.33984375 C226.44916489 522.30285242 222.94324005 524.36190239 219.4375 526.4375 C212.1335807 530.76000662 204.79273514 535.01543097 197.4375 539.25 C188.57284097 544.35704771 179.71570103 549.47657154 170.875 554.625 C169.89845459 555.19250977 168.92190918 555.76001953 167.91577148 556.34472656 C166.99223877 556.88323242 166.06870605 557.42173828 165.1171875 557.9765625 C164.2415918 558.48348633 163.36599609 558.99041016 162.46386719 559.51269531 C160.87537877 560.47158071 159.31472993 561.47899134 157.79394531 562.54199219 C154.54178197 564.80836789 152.69152348 565.96275166 148.6640625 566.1796875 C143.47240773 564.50817392 139.0417942 561.91592595 134.375 559.125 C133.446875 558.58230469 132.51875 558.03960938 131.5625 557.48046875 C127.35731788 555.01640072 123.17834547 552.50923524 119 550 C119.18188477 548.21020508 119.18188477 548.21020508 120 546 C122.17944336 544.31518555 122.17944336 544.31518555 125.08984375 542.63671875 C126.17072266 542.00507812 127.25160156 541.3734375 128.36523438 540.72265625 C129.55586034 540.04404403 130.74661922 539.36566496 131.9375 538.6875 C133.16667157 537.97508888 134.39517838 537.26152968 135.62304688 536.546875 C138.79395269 534.70537998 141.9732284 532.87891212 145.15545654 531.05706787 C147.98360374 529.43631802 150.80608691 527.80578808 153.62890625 526.17578125 C156.82366197 524.33169563 160.01915788 522.48899512 163.21777344 520.65161133 C171.08316951 516.12906787 178.89276344 511.51808214 186.6875 506.875 C196.04579177 501.3030825 205.46711822 495.86397386 214.96337891 490.53100586 C220.86026627 487.21733291 226.72985784 483.86310155 232.5625 480.4375 C233.23490723 480.04385254 233.90731445 479.65020508 234.60009766 479.24462891 C235.22835449 478.8738623 235.85661133 478.5030957 236.50390625 478.12109375 C237.03830322 477.8058374 237.5727002 477.49058105 238.12329102 477.16577148 C238.74260498 476.78106689 239.36191895 476.3963623 240 476 C241.01127771 475.55178831 242.02255543 475.10357662 243.06447792 474.64178276 C246.36281184 471.67349247 246.46040282 471.19598328 246.78970909 467.00226021 C246.83897009 464.85722782 246.8547122 462.7112806 246.84506226 460.56570435 C246.86303883 459.38385083 246.88101541 458.20199732 246.89953673 456.98433006 C246.94290129 453.70223347 246.95917885 450.4212942 246.96366787 447.13895416 C246.97478897 443.59931638 247.02001769 440.06008118 247.06013489 436.52067566 C247.14907382 427.97054951 247.17980562 419.42058385 247.20351309 410.87006694 C247.21585208 406.84025117 247.23411273 402.81046241 247.25160599 398.78066635 C247.30736856 385.37771887 247.34802896 371.97485323 247.34512901 358.57177925 C247.34455809 355.0940768 247.34404831 351.61637437 247.34375 348.13867188 C247.34366183 347.27433733 247.34357365 346.41000278 247.34348281 345.51947628 C247.34483498 331.53120239 247.44823397 317.54565522 247.59467475 303.55822338 C247.7435065 289.18616009 247.80158877 274.81596873 247.77117884 260.44314754 C247.7563289 252.37702472 247.78052798 244.31524313 247.90610886 236.2499733 C248.01282742 229.37670185 248.03670733 222.5092756 247.95494245 215.63555725 C247.91571674 212.12999881 247.91413928 208.63574807 248.01905632 205.13128853 C248.45270163 192.72728484 248.45270163 192.72728484 245 181 C239.11292704 174.85854735 231.51217882 171.4251141 223.76384759 168.18482947 C220.32106818 166.70894978 217.25431181 164.9286922 214.07421875 162.95703125 C205.07925732 157.70578059 196.0802878 152.46197094 187.0625 147.25 C162.93274737 133.29471005 162.93274737 133.29471005 151.3203125 125.984375 C148.51198594 124.30598689 145.68448712 122.72547849 142.80859375 121.16796875 C137.11387609 118.08300937 131.5208434 114.84373565 125.9375 111.5625 C117.41453672 106.57119179 108.87367939 101.61295775 100.3125 96.6875 C90.24337569 90.89056346 80.21030676 85.03449419 70.19146729 79.15130615 C62.13289147 74.41924934 54.06373503 69.70669414 45.97143555 65.0324707 C40.64186597 61.95312499 35.31958421 58.86150241 30.00244141 55.76074219 C27.93675031 54.55648137 25.87003655 53.35397283 23.80224609 52.15332031 C19.12733679 49.43417093 14.47286857 46.69301168 9.87109375 43.8515625 C9.09459473 43.37726807 8.3180957 42.90297363 7.51806641 42.41430664 C6.09216781 41.5403637 4.67326819 40.65485074 3.26318359 39.75561523 C0.55445277 38.1046887 -1.38863546 36.98900094 -4.60546875 37.046875 C-7.47238514 38.18802932 -9.9899283 39.57875677 -12.625 41.1875 C-16.52214142 43.5286399 -20.4254258 45.79929354 -24.4375 47.9375 C-29.58082765 50.71267679 -34.52839072 53.75477308 -39.46875 56.875 C-43.24282306 59.19998744 -47.14877629 61.27460176 -51.04589844 63.38427734 C-56.03524351 66.11316046 -60.95320018 68.96410503 -65.875 71.8125 C-66.9892334 72.45630615 -68.1034668 73.1001123 -69.25146484 73.76342773 C-80.76927717 80.42464821 -92.24210857 87.16255017 -103.71580505 93.89935303 C-129.04225538 108.76697643 -129.04225538 108.76697643 -140.125 115.0625 C-148.09146488 119.59245062 -155.96356193 124.28177693 -163.84765625 128.953125 C-167.7415447 131.259262 -171.64610817 133.54484152 -175.5625 135.8125 C-179.60740657 138.16040554 -183.59021178 140.59374143 -187.5625 143.0625 C-192.35594399 146.0320414 -197.21701073 148.7788662 -202.1875 151.4375 C-206.37634414 153.76463563 -210.41806377 156.31667186 -214.46875 158.875 C-221.15398463 162.96891399 -227.98878885 166.61964751 -235.21783161 169.65634632 C-246.59448188 174.63098756 -246.59448188 174.63098756 -254.38560843 183.81598067 C-256.46595807 191.46249924 -256.26711 199.28428113 -256.06409681 207.15022218 C-255.99891939 210.70185961 -256.07336647 214.25114721 -256.12922668 217.80256653 C-256.21629842 224.74221798 -256.1753578 231.67533811 -256.08819821 238.61476203 C-256.02009452 244.25600538 -256.00121348 249.89548691 -256.01688576 255.53710365 C-256.01911974 256.34243632 -256.02135371 257.147769 -256.02365539 257.97750569 C-256.02846768 259.61390558 -256.03342028 261.25030507 -256.03851161 262.88670412 C-256.07858151 277.32836114 -255.99805266 291.76688098 -255.85424805 306.20776367 C-255.71490739 320.20094014 -255.67959705 334.18965717 -255.75170898 348.18334961 C-255.83026131 363.44851649 -255.84814716 378.71157894 -255.76376945 393.97678834 C-255.75486669 395.6059732 -255.74600742 397.23515831 -255.73719215 398.86434364 C-255.73278598 399.66578618 -255.72837981 400.46722872 -255.72384011 401.29295739 C-255.69673919 406.92488519 -255.71169541 412.55579526 -255.74243736 418.18767357 C-255.77839012 425.05561307 -255.74500207 431.91920254 -255.6248429 438.78624865 C-255.56516559 442.28749791 -255.53501166 445.78202015 -255.58790207 449.283535 C-256.30430497 463.04314865 -256.30430497 463.04314865 -251.11552644 475.17865968 C-246.59080157 478.82166889 -241.65580863 481.10777718 -236.24074996 483.1255089 C-233.19357029 484.31472302 -230.58219984 485.88218712 -227.80859375 487.609375 C-226.91994629 488.12886719 -226.03129883 488.64835937 -225.11572266 489.18359375 C-223.79000244 489.95896484 -223.79000244 489.95896484 -222.4375 490.75 C-215.98214078 494.52171817 -209.52071973 498.28247626 -203.04296875 502.015625 C-202.46355026 502.34955261 -201.88413177 502.68348022 -201.28715515 503.02752686 C-198.49372349 504.63684617 -195.69937025 506.24454434 -192.90405273 507.85058594 C-188.24246534 510.53290857 -183.59378412 513.23012288 -178.98828125 516.0078125 C-173.39441499 519.38107661 -167.72872807 522.62525155 -162.0625 525.875 C-152.83366843 531.18184244 -143.64914413 536.55642559 -134.5 542 C-122.47428156 549.15148107 -110.37471262 556.16744589 -98.24267578 563.13671875 C-80.45564996 573.35736181 -62.71310746 583.65181617 -45 594 C-33.12 600.93 -33.12 600.93 -21 608 C-21 568.4 -21 528.8 -21 488 C-25.62 485.69 -30.24 483.38 -35 481 C-43.10703261 475.150087 -49.47420496 467.93813005 -54 459 C-54.64775391 457.73736328 -54.64775391 457.73736328 -55.30859375 456.44921875 C-60.33209414 444.43801194 -60.25881985 426.62460482 -55.3515625 414.5859375 C-52.87315045 409.84400461 -50.01399785 405.41420157 -47 401 C-46.67 400.34 -46.34 399.68 -46 399 C-48.31 397.68 -50.62 396.36 -53 395 C-53 394.34 -53 393.68 -53 393 C-54.65 392.34 -56.3 391.68 -58 391 C-58 390.34 -58 389.68 -58 389 C-58.99 388.67 -59.98 388.34 -61 388 C-61 387.34 -61 386.68 -61 386 C-61.66 386 -62.32 386 -63 386 C-64.71342465 384.01493486 -66.30279131 382.02995851 -67.875 379.9375 C-68.30941406 379.37611328 -68.74382812 378.81472656 -69.19140625 378.23632812 C-77 367.97728979 -77 367.97728979 -77 364 C-77.88300781 363.82984375 -78.76601563 363.6596875 -79.67578125 363.484375 C-96.76009095 360.03448217 -111.01552051 353.45374457 -125 343 C-126.29550781 342.04673828 -126.29550781 342.04673828 -127.6171875 341.07421875 C-132.33133822 337.52759134 -132.33133822 337.52759134 -134 336 C-134 335.34 -134 334.68 -134 334 C-134.66 334 -135.32 334 -136 334 C-139.23662407 330.53265934 -142.09366971 326.74561708 -145 323 C-145.61617187 322.20980469 -146.23234375 321.41960937 -146.8671875 320.60546875 C-160.9407071 301.57054707 -167 279.46621341 -167 256 C-140.27 255.67 -113.54 255.34 -86 255 C-85.67 240.48 -85.34 225.96 -85 211 C-64.02547716 210.97745458 -43.05096409 210.95902177 -22.07643223 210.94818783 C-12.33830393 210.94302446 -2.60018368 210.935981 7.13793945 210.92456055 C15.62249493 210.91461494 24.10704458 210.90814687 32.59160572 210.90591151 C37.0869866 210.90460419 41.58235081 210.90151702 46.07772636 210.89426994 C50.30391046 210.88751167 54.53007093 210.88538264 58.75625992 210.88689232 C60.31195898 210.8866159 61.86765879 210.88460964 63.4233532 210.88079453 C65.53811934 210.87586027 67.65279487 210.8770007 69.76756287 210.87974548 C70.95391044 210.87882369 72.14025801 210.8779019 73.3625555 210.87695217 C76 211 76 211 77 212 C77.12185143 213.34983748 77.17766831 214.70574701 77.20532227 216.06079102 C77.22526749 216.92160782 77.24521271 217.78242462 77.26576233 218.66932678 C77.29083107 220.07244362 77.29083107 220.07244362 77.31640625 221.50390625 C77.33718735 222.45692123 77.35796844 223.40993622 77.37937927 224.39183044 C77.44498177 227.4486441 77.50380918 230.50554656 77.5625 233.5625 C77.60567506 235.62956663 77.64928901 237.69662414 77.69335938 239.76367188 C77.80067401 244.84235595 77.90191091 249.9211297 78 255 C78.98527679 254.99777939 79.97055359 254.99555878 80.98568726 254.99327087 C90.25623347 254.97302781 99.52677521 254.95802222 108.79733849 254.94818783 C113.5637949 254.94296197 118.33023352 254.93586969 123.09667969 254.92456055 C127.6937439 254.91372115 132.29079097 254.90772092 136.88786697 254.90512276 C138.64460139 254.90327042 140.40133484 254.89965343 142.15806198 254.89426994 C144.61239424 254.88704557 147.06665497 254.88600965 149.52099609 254.88647461 C150.61827278 254.8810817 150.61827278 254.8810817 151.73771667 254.87557983 C156.77189568 254.88594784 156.77189568 254.88594784 159 256 C160.21434916 282.67070557 149.86955197 307.80056909 133 328 C132.5570459 328.56041992 132.1140918 329.12083984 131.65771484 329.69824219 C130.48280767 331.16870456 129.24564859 332.58896277 128 334 C127.34 334 126.68 334 126 334 C126 334.66 126 335.32 126 336 C113.12725339 347.76649495 96.54337387 358.17606247 79.328125 361.765625 C72.26585882 363.15083947 72.26585882 363.15083947 66.87890625 367.56640625 C65.73890285 369.62789046 64.65475047 371.72113215 63.625 373.83984375 C58.14974023 384.4876446 47.24399248 392.69003431 38 400 C38.721875 400.763125 39.44375 401.52625 40.1875 402.3125 C50.77867406 415.00987345 51.12283937 431.32906799 50 447 C47.83316634 459.57282524 39.86239878 471.09568331 30 479 C24.70509276 482.52843606 19.04597551 485.98467483 13 488 C13.00775137 488.81206909 13.01550274 489.62413818 13.023489 490.46081543 C13.20739639 510.23341422 13.31378132 530.0051106 13.33421898 549.77857971 C13.34596615 559.34114472 13.38380767 568.90226856 13.48339844 578.46435547 C13.57015178 586.8002619 13.60762035 595.13469594 13.58627188 603.47105217 C13.57668112 607.88460867 13.59151736 612.29499401 13.66541672 616.70800781 C13.73426681 620.86605493 13.73699058 625.01900875 13.68990898 629.17730904 C13.68416047 630.69953293 13.70217983 632.22206908 13.74625206 633.7436657 C14.04769005 644.81646444 14.04769005 644.81646444 10.64261293 648.44743729 C6.00019476 652.13753533 0.76385688 655.1978 -5.28643227 654.76480103 C-8.33014187 653.90695171 -10.70624207 652.72034194 -13.4296875 651.11328125 C-14.97462891 650.21125977 -14.97462891 650.21125977 -16.55078125 649.29101562 C-17.64777344 648.63810547 -18.74476563 647.98519531 -19.875 647.3125 C-21.03723409 646.62996236 -22.20000378 645.94833598 -23.36328125 645.26757812 C-25.75253504 643.86758818 -28.13875621 642.46263956 -30.52246094 641.05322266 C-34.69773201 638.58541391 -38.88781719 636.14323578 -43.07861328 633.7019043 C-45.03863539 632.56005956 -46.99793706 631.41697732 -48.95654297 630.27270508 C-56.28934711 625.98893015 -63.64117876 621.73889948 -71 617.5 C-88.94987172 607.15744853 -106.82676538 596.69116048 -124.69482422 586.2081604 C-132.79824277 581.45455208 -140.91199485 576.7196615 -149.04785156 572.02172852 C-155.23070009 568.45041534 -161.39747606 564.85198061 -167.5625 561.25 C-175.9212237 556.36728702 -184.29775028 551.5166876 -192.6875 546.6875 C-202.02401193 541.31129372 -211.33366698 535.8912486 -220.625 530.4375 C-221.23504883 530.07943268 -221.84509766 529.72136536 -222.47363281 529.35244751 C-224.90582282 527.92476841 -227.33794733 526.49697778 -229.76998901 525.06904602 C-235.57136281 521.66337299 -241.37813377 518.26701688 -247.1875 514.875 C-248.1372168 514.3188501 -249.08693359 513.7627002 -250.06542969 513.18969727 C-254.81065394 510.41684206 -259.56858487 507.67015416 -264.35792542 504.97433472 C-266.77897671 503.61103753 -269.19582632 502.24037361 -271.61270142 500.86968994 C-273.3378736 499.89595517 -275.06963548 498.93392491 -276.80151367 497.97216797 C-277.84412354 497.38064941 -278.8867334 496.78913086 -279.9609375 496.1796875 C-280.88696777 495.66132324 -281.81299805 495.14295898 -282.76708984 494.60888672 C-285.26439394 492.80949529 -285.89153139 491.82884976 -287 489 C-287.24954766 486.49722481 -287.24954766 486.49722481 -287.24888897 483.62185669 C-287.25348777 482.52402328 -287.25808656 481.42618986 -287.26282471 480.29508877 C-287.25768115 479.08927686 -287.25253759 477.88346495 -287.24723816 476.64111328 C-287.24965257 475.35984338 -287.25206699 474.07857347 -287.25455457 472.75847721 C-287.26097583 469.19914592 -287.25489382 465.63992816 -287.24679029 462.08060431 C-287.24021843 458.24264137 -287.24516081 454.40469123 -287.24867249 450.56672668 C-287.25371864 443.04473477 -287.24806668 435.52278677 -287.23882218 428.00080031 C-287.22843922 419.23708328 -287.22850839 410.47337576 -287.22899476 401.70965374 C-287.22949568 386.06472734 -287.22032818 370.41982137 -287.20581055 354.77490234 C-287.19174192 339.60595324 -287.18463895 324.43702212 -287.18530273 309.26806641 C-287.18534269 308.33499853 -287.18538265 307.40193066 -287.18542381 306.440588 C-287.18546417 305.50911257 -287.18550452 304.57763714 -287.1855461 303.61793518 C-287.18623716 286.34206292 -287.18033639 269.06619829 -287.17139288 251.7903285 C-287.16838287 245.6879572 -287.16731405 239.5855873 -287.16686058 233.48321533 C-287.16617625 226.03563063 -287.16168164 218.58805877 -287.15252777 211.14047951 C-287.14793025 207.34361104 -287.14485665 203.5467589 -287.14612198 199.74988747 C-287.14742993 195.62482557 -287.14093638 191.49981164 -287.13371277 187.37475586 C-287.13526137 186.18678972 -287.13680997 184.99882359 -287.1384055 183.77485847 C-287.07931763 163.27480098 -287.07931763 163.27480098 -283.97265625 159.60546875 C-283.01230469 159.13753906 -282.05195313 158.66960937 -281.0625 158.1875 C-279.87415328 157.56150055 -278.68674195 156.9337239 -277.5 156.3046875 C-276.80519531 155.9550293 -276.11039062 155.60537109 -275.39453125 155.24511719 C-270.34819015 152.62110214 -265.4768714 149.6735599 -260.5625 146.8125 C-258.28831505 145.50424372 -256.01357177 144.19695755 -253.73828125 142.890625 C-247.54848621 139.32629413 -241.39281828 135.70706346 -235.25 132.0625 C-228.47777569 128.04587865 -221.68330951 124.08253794 -214.8359375 120.1953125 C-208.74316897 116.72273294 -202.70064972 113.16271664 -196.64672852 109.62304688 C-190.21535674 105.86608238 -183.76870985 102.1371595 -177.30981445 98.42773438 C-166.30772658 92.10821318 -155.37830405 85.684182 -144.53344727 79.09790039 C-139.02039899 75.76097002 -133.45651716 72.57606897 -127.78491211 69.5168457 C-122.80741183 66.80577275 -117.9066496 63.96170415 -113 61.125 C-111.87916016 60.47789062 -110.75832031 59.83078125 -109.60351562 59.1640625 C-100.40174841 53.84287266 -91.2589161 48.4243779 -82.12255859 42.99169922 C-68.28886079 34.77700448 -54.3393097 26.76449915 -40.37109375 18.78125 C-39.0396936 18.02026001 -39.0396936 18.02026001 -37.68139648 17.24389648 C-35.95966097 16.26176731 -34.23655289 15.28203973 -32.51196289 14.30493164 C-28.19801472 11.85593064 -23.92295674 9.36007186 -19.6875 6.77734375 C-18.82632568 6.25881836 -17.96515137 5.74029297 -17.07788086 5.20605469 C-15.44779447 4.22195905 -13.82557984 3.22465625 -12.21313477 2.21191406 C-7.78740109 -0.44284143 -5.13328854 -1.85789264 0 0 Z M-53 243 C-53.061875 257.9325 -53.12375 272.865 -53.1875 288.25 C-53.21481201 292.94379883 -53.24212402 297.63759766 -53.27026367 302.47363281 C-53.28030447 306.72591835 -53.28030447 306.72591835 -53.28633118 310.97821045 C-53.29090129 312.85437156 -53.30137545 314.73052454 -53.31672668 316.60662842 C-53.45710756 334.68572636 -51.8385733 350.3823124 -38.8984375 364.2265625 C-27.95198494 374.45226098 -14.46952945 378.47074342 0.21484375 378.2109375 C11.90371257 377.55954543 24.03102634 371.62185343 32 363 C41.42345416 351.2957098 45.35878388 339.45871413 45.22705078 324.51123047 C45.22741239 323.1564091 45.22741239 323.1564091 45.2277813 321.77421761 C45.22630412 318.88843603 45.21114556 316.00292206 45.1953125 313.1171875 C45.19236711 311.32039514 45.19032973 309.52360106 45.18920898 307.72680664 C45.17877917 301.10951137 45.15085669 294.49225298 45.125 287.875 C45.08375 273.06625 45.0425 258.2575 45 243 C12.66 243 -19.68 243 -53 243 Z M-128 288 C-123.95109656 296.37150595 -123.95109656 296.37150595 -118.8125 303.4375 C-116.72494094 305.92420993 -114.80386752 308.29419872 -113 311 C-112.34 311 -111.68 311 -111 311 C-111 311.66 -111 312.32 -111 313 C-108.64314072 315.11167246 -108.64314072 315.11167246 -105.625 317.3125 C-104.62726563 318.07175781 -103.62953125 318.83101562 -102.6015625 319.61328125 C-98.30088143 322.46329875 -93.61462522 324.69268739 -89 327 C-89 314.13 -89 301.26 -89 288 C-101.87 288 -114.74 288 -128 288 Z M81 288 C81 300.87 81 313.74 81 327 C90.54914473 322.46517965 90.54914473 322.46517965 98.75 316.75 C99.56984375 316.08484375 100.3896875 315.4196875 101.234375 314.734375 C101.81703125 314.16203125 102.3996875 313.5896875 103 313 C103 312.34 103 311.68 103 311 C103.66 311 104.32 311 105 311 C106.70063134 309.07964107 108.26220815 307.16161315 109.8125 305.125 C110.23853516 304.58875 110.66457031 304.0525 111.10351562 303.5 C114.954797 298.48925569 117.04694007 293.90611986 120 288 C107.13 288 94.26 288 81 288 Z M-18.875 418.6875 C-24.03025205 423.70779781 -26.08629758 428.1282043 -26.5 435.3125 C-26.36550637 441.3815251 -24.10654794 445.88529071 -21 451 C-20.34 451 -19.68 451 -19 451 C-19 451.66 -19 452.32 -19 453 C-17.75264433 453.6509259 -16.50198168 454.29551669 -15.25 454.9375 C-14.20585938 455.47697266 -14.20585938 455.47697266 -13.140625 456.02734375 C-8.1496735 458.29513011 -3.03885073 458.9590884 2.27734375 457.28125 C9.3377674 454.36779731 14.03844654 450.29438095 17.26953125 443.3046875 C19.1093836 437.49980576 18.92980042 431.34721883 16.5 425.75 C13.35062843 420.41691784 9.2519927 416.16553721 3.3515625 414.05078125 C-5.41459202 412.12320946 -11.90294298 412.89619457 -18.875 418.6875 Z " fill="#000000" transform="translate(544,213)"/>
<path d="M0 0 C4.00518902 3.12404743 6.62157982 6.51505037 7.49032402 11.55827522 C7.63599772 13.96960114 7.65436694 16.35029231 7.62670898 18.76586914 C7.63211197 19.6740892 7.63751495 20.58230927 7.64308167 21.51805115 C7.65553145 24.50325676 7.63910406 27.48749094 7.62109375 30.47265625 C7.62124881 32.55578156 7.62273897 34.63890716 7.62550354 36.72203064 C7.62688581 41.08052375 7.61435696 45.4386871 7.59155273 49.79711914 C7.5631512 55.37796909 7.56591264 60.9582721 7.57864285 66.53916264 C7.58560391 70.83805497 7.57780609 75.13682131 7.56538582 79.43569756 C7.56087674 81.4933467 7.56052976 83.55100939 7.56445122 85.60865974 C7.56736804 88.48556287 7.55083427 91.36171702 7.52905273 94.23852539 C7.53355438 95.08492584 7.53805603 95.93132629 7.54269409 96.80337524 C7.48055843 101.75347432 6.8440376 105.13964824 4.125 109.4375 C0.53120314 112.84214965 -2.8977045 115.38778635 -7.98046875 115.47265625 C-13.26967282 115.10941108 -16.76460068 113.97435522 -20.875 110.4375 C-25.13315615 105.32549166 -25.45277901 101.50926572 -25.39257812 95.14672852 C-25.3995874 94.2305072 -25.40659668 93.31428589 -25.41381836 92.37030029 C-25.43137354 89.35202413 -25.41978324 86.33469139 -25.40625 83.31640625 C-25.40894585 81.21182577 -25.41282905 79.10724651 -25.41784668 77.00267029 C-25.42373858 72.59532799 -25.41518935 68.18831036 -25.39648438 63.78100586 C-25.3737093 58.14071802 -25.38681107 52.50119217 -25.41077423 46.86093235 C-25.42525235 42.51566361 -25.42061668 38.17057447 -25.41026306 33.82530022 C-25.40760063 31.74614305 -25.41084847 29.66696942 -25.42018127 27.5878315 C-25.43037828 24.67733934 -25.41480078 21.76806765 -25.39257812 18.85766602 C-25.40067505 18.00393906 -25.40877197 17.1502121 -25.41711426 16.27061462 C-25.33607905 10.52094925 -24.20768235 7.15785173 -20.875 2.4375 C-14.6772354 -2.39675639 -7.24385367 -3.59083733 0 0 Z " fill="#000000" transform="translate(548.875,289.5625)"/>
<path d="M0 0 C7.13568082 4.75712055 9.77529065 11.65725924 13 19.3125 C13.95770958 21.554954 14.91605789 23.79713529 15.875 26.0390625 C16.35839844 27.17504883 16.84179688 28.31103516 17.33984375 29.48144531 C18.75868371 32.750987 20.23968403 35.98278895 21.75 39.2109375 C22.21253174 40.21713135 22.67506348 41.2233252 23.15161133 42.26000977 C24.02265923 44.15114417 24.90948484 46.03512678 25.81518555 47.90991211 C28.83285642 54.57021527 29.6859037 60.58197605 28.8125 67.875 C26.52956094 72.79209952 23.55681621 75.31306925 18.8125 77.875 C14.07910827 79.45279724 10.65498095 78.51307773 6.05859375 77.0546875 C-1.44811942 73.11203119 -3.69814467 66.01705465 -6.875 58.5625 C-7.39030273 57.37148682 -7.90560547 56.18047363 -8.43652344 54.95336914 C-9.50364356 52.48424596 -10.56256609 50.01180235 -11.61669922 47.53710938 C-13.11332067 44.04793906 -14.6468737 40.577548 -16.19140625 37.109375 C-17.10805261 35.01097612 -18.02347581 32.91204237 -18.9375 30.8125 C-19.58271606 29.38006958 -19.58271606 29.38006958 -20.2409668 27.91870117 C-22.81920156 21.87901168 -24.19308311 16.46356246 -23.1875 9.875 C-21.375 6.4375 -21.375 6.4375 -19.1875 3.875 C-18.713125 3.2975 -18.23875 2.72 -17.75 2.125 C-12.48796001 -2.08463199 -6.11963068 -2.15986965 0 0 Z " fill="#000000" transform="translate(468.1875,338.125)"/>
<path d="M0 0 C3.59310765 2.99425637 5.95213139 5.47741976 6.625 10.1875 C7.050324 18.91727507 3.6784635 26.1849707 0.625 34.1875 C0.13662324 35.48741103 -0.35112624 36.78755783 -0.83837891 38.08789062 C-2.21500721 41.75616828 -3.61062723 45.41681914 -5.01699829 49.0737915 C-5.58491617 50.55560974 -6.14844218 52.03911934 -6.70736694 53.52435303 C-13.46720376 71.43378572 -13.46720376 71.43378572 -20.40917969 75.32885742 C-24.91919519 77.29876857 -30.16411805 77.05327394 -34.69921875 75.27734375 C-39.1637629 72.7108498 -41.84788663 70.24606303 -43.375 65.1875 C-44.09736863 57.89383244 -42.74387088 52.10754153 -40.05078125 45.375 C-39.7075029 44.48063232 -39.36422455 43.58626465 -39.01054382 42.66479492 C-38.28606052 40.78620203 -37.55366232 38.91064401 -36.8137207 37.03808594 C-35.69281513 34.20095317 -34.59532935 31.35565329 -33.50195312 28.5078125 C-32.79041257 26.67135134 -32.07756427 24.83539623 -31.36328125 23 C-31.03910721 22.16428467 -30.71493317 21.32856934 -30.38093567 20.4675293 C-23.32811066 2.66014788 -23.32811066 2.66014788 -15.125 -2.125 C-9.64803751 -3.49424062 -4.93318338 -2.64930219 0 0 Z " fill="#000000" transform="translate(624.375,339.8125)"/>
<path d="" fill="#000000" transform="translate(0,0)"/>
<path d="" fill="#000000" transform="translate(0,0)"/>
<path d="" fill="#000000" transform="translate(0,0)"/>
</svg>
